<svg width="24" height="24" viewBox="0 0 24 24" fill="none" xmlns="http://www.w3.org/2000/svg">
<path d="M7 6H21M7 12H21M7 18H21" stroke="black" stroke-width="1.2"/>
<path fill-rule="evenodd" clip-rule="evenodd" d="M2 6C2 5.17157 2.67157 4.5 3.5 4.5V4.5C4.32843 4.5 5 5.17157 5 6V6C5 6.82843 4.32843 7.5 3.5 7.5V7.5C2.67157 7.5 2 6.82843 2 6V6ZM2 12C2 11.1716 2.67157 10.5 3.5 10.5V10.5C4.32843 10.5 5 11.1716 5 12V12C5 12.8284 4.32843 13.5 3.5 13.5V13.5C2.67157 13.5 2 12.8284 2 12V12ZM2 18C2 17.1716 2.67157 16.5 3.5 16.5V16.5C4.32843 16.5 5 17.1716 5 18V18C5 18.8284 4.32843 19.5 3.5 19.5V19.5C2.67157 19.5 2 18.8284 2 18V18Z" stroke="black" stroke-width="1.2"/>
</svg>
