<?xml version="1.0" encoding="UTF-8" standalone="no"?>
<svg
   width="32"
   height="32"
   viewBox="0 0 24 24"
   fill="none"
   version="1.1"
   id="svg6"
   sodipodi:docname="Switch Camera test.svg"
   xml:space="preserve"
   inkscape:version="1.2 (dc2aedaf03, 2022-05-15)"
   xmlns:inkscape="http://www.inkscape.org/namespaces/inkscape"
   xmlns:sodipodi="http://sodipodi.sourceforge.net/DTD/sodipodi-0.dtd"
   xmlns="http://www.w3.org/2000/svg"
   xmlns:svg="http://www.w3.org/2000/svg"><defs
     id="defs10" /><sodipodi:namedview
     id="namedview8"
     pagecolor="#ffffff"
     bordercolor="#666666"
     borderopacity="1.0"
     inkscape:showpageshadow="2"
     inkscape:pageopacity="0.0"
     inkscape:pagecheckerboard="0"
     inkscape:deskcolor="#d1d1d1"
     showgrid="false"
     inkscape:lockguides="true"
     inkscape:zoom="12.786848"
     inkscape:cx="-17.713514"
     inkscape:cy="5.9827099"
     inkscape:window-width="1920"
     inkscape:window-height="1047"
     inkscape:window-x="0"
     inkscape:window-y="0"
     inkscape:window-maximized="1"
     inkscape:current-layer="svg6" /><path
     fill-rule="evenodd"
     clip-rule="evenodd"
     d="M8 3.58579C8.37507 3.21071 8.88378 3 9.41421 3H14.5858C15.1162 3 15.6249 3.21071 16 3.58579L17.4142 5L21 5C22.1046 5 23 5.89543 23 7V18C23 19.1046 22.1046 20 21 20H3C1.89543 20 1 19.1046 1 18V7C1 5.89543 1.89543 5 3 5H6.58579L8 3.58579ZM14.5858 5L9.41421 5L8 6.41421C7.62493 6.78929 7.11622 7 6.58579 7H3V18H21V7H17.4142C16.8838 7 16.3751 6.78929 16 6.41421L14.5858 5Z"
     fill="#8ECAE6"
     id="path2" /><g
     style="fill:none"
     id="g137"
     transform="matrix(0.56029017,0,0,0.5441491,5.1166119,5.8650077)"><path
       d="m 12,5 c -3.86599,0 -7,3.13401 -7,7 0,3.5302 2.61322,6.4501 6.0108,6.9306 v 2.0157 C 6.50563,20.4537 3,16.6362 3,12 3,7.02944 7.02944,3 12,3 c 3.9288,0 7.2696,2.51736 8.4974,6.02706 H 18.3392 C 17.2213,6.64754 14.803,5 12,5 Z"
       fill="#283238"
       id="path116" /><path
       d="m 12.9892,20.9463 v -2.0157 c 0.6398,-0.0905 1.2518,-0.2675 1.8238,-0.5187 l 1.0758,1.7069 c -0.8946,0.4292 -1.871,0.715 -2.8996,0.8275 z"
       fill="#283238"
       id="path118" /><path
       d="m 17.59,19.0539 -1.0722,-1.7068 c 0.483,-0.4085 0.9099,-0.8813 1.2675,-1.4051 l 1.817,0.8772 c -0.5418,0.8531 -1.2233,1.6087 -2.0123,2.2347 z"
       fill="#283238"
       id="path120" /><path
       d="M 18.666,14.1425 C 18.8829,13.4673 19,12.7473 19,12 h 2 c 0,1.0575 -0.1824,2.0723 -0.5174,3.0149 z"
       fill="#283238"
       id="path122" /><path
       d="m 14,10 h 7 V 3 Z"
       fill="#8ECAE6"
       id="path124" /></g></svg>
