<svg width="24" height="24" viewBox="0 0 24 24" fill="none" xmlns="http://www.w3.org/2000/svg">
<path d="M2 7C2 6.44772 2.44772 6 3 6H6.58579C6.851 6 7.10536 5.89464 7.29289 5.70711L8.70711 4.29289C8.89464 4.10536 9.149 4 9.41421 4H14.5858C14.851 4 15.1054 4.10536 15.2929 4.29289L16.7071 5.70711C16.8946 5.89464 17.149 6 17.4142 6H21C21.5523 6 22 6.44772 22 7V18C22 18.5523 21.5523 19 21 19H3C2.44772 19 2 18.5523 2 18V7Z" stroke="#023047" stroke-width="2"/>
<circle cx="12" cy="12" r="4" stroke="#219EBC" stroke-width="2"/>
</svg>
