<svg width="24" height="24" viewBox="0 0 24 24" fill="none" xmlns="http://www.w3.org/2000/svg">
<path d="M12.637 16.1717L12.637 16.1718C12.0517 16.7884 11.8002 17.4639 11.8413 18.1296C11.8798 18.7532 12.167 19.2243 12.3711 19.4925C12.5067 19.6708 12.6402 19.8657 12.7055 20.0637C12.7602 20.2295 12.7498 20.3316 12.6798 20.4434L13.5276 20.9738L12.6798 20.4434C12.5499 20.6511 12.4321 20.7661 12.3222 20.837C12.2154 20.9059 12.0644 20.9668 11.8172 20.9901C11.2738 21.0414 10.4003 20.9029 8.91921 20.4271C5.93048 19.4669 2.52394 15.8129 3.05553 10.7339C3.57474 5.7731 8.15685 2.24941 14.009 3.13605C16.8765 3.5705 18.682 5.0404 19.7425 6.71368C20.8262 8.42354 21.1295 10.3439 20.9532 11.6019C20.6147 14.0172 18.8797 14.8745 17.5174 15.2692L17.7458 16.0575L17.5174 15.2692C17.0597 15.4017 16.4849 15.4003 15.744 15.3874H15.744L15.7353 15.3873H15.7353L15.7036 15.3867C15.2466 15.3787 14.7089 15.3693 14.2211 15.4374C13.7185 15.5076 13.1044 15.6793 12.637 16.1717Z" stroke="currentcolor" stroke-width="2"/>
<path fill-rule="evenodd" clip-rule="evenodd" d="M7.97466 11.0156C7.97466 11.8354 7.30876 12.5 6.48733 12.5C5.6659 12.5 5 11.8354 5 11.0156C5 10.1957 5.6659 9.53113 6.48733 9.53113C7.30876 9.53113 7.97466 10.1957 7.97466 11.0156ZM9.46199 8.46887C10.2834 8.46887 10.9493 7.80427 10.9493 6.98444C10.9493 6.1646 10.2834 5.5 9.46199 5.5C8.64056 5.5 7.97466 6.1646 7.97466 6.98444C7.97466 7.80427 8.64056 8.46887 9.46199 8.46887ZM16.0253 6.98444C16.0253 7.80427 15.3594 8.46887 14.538 8.46887C13.7166 8.46887 13.0507 7.80427 13.0507 6.98444C13.0507 6.1646 13.7166 5.5 14.538 5.5C15.3594 5.5 16.0253 6.1646 16.0253 6.98444ZM17.5127 12.5C18.3341 12.5 19 11.8354 19 11.0156C19 10.1957 18.3341 9.53113 17.5127 9.53113C16.6912 9.53113 16.0253 10.1957 16.0253 11.0156C16.0253 11.8354 16.6912 12.5 17.5127 12.5Z" fill="#19A1E5"/>
</svg>
