<svg width="24" height="24" viewBox="0 0 24 24" fill="none" xmlns="http://www.w3.org/2000/svg">
<path fill-rule="evenodd" clip-rule="evenodd" d="M8 4L8.44721 3.10557C8.46516 3.06967 8.48411 3.03447 8.504 3C8.85957 2.38385 9.51866 2 10.2361 2H13.7639C14.4813 2 15.1404 2.38385 15.496 3C15.5159 3.03447 15.5348 3.06967 15.5528 3.10557L16 4H19C19.5523 4 20 4.44772 20 5V6H4V5C4 4.44772 4.44772 4 5 4H8Z" fill="#8ECAE6"/>
<path fill-rule="evenodd" clip-rule="evenodd" d="M7 10V20H17V10H7ZM5 20C5 21.1046 5.89543 22 7 22H17C18.1046 22 19 21.1046 19 20V8H5V20Z" fill="#283238"/>
</svg>
