<svg width="24" height="24" viewBox="0 0 24 24" fill="none" xmlns="http://www.w3.org/2000/svg">
<path d="M5.23724 17.5L6.08767 18.0261L6.09536 18.0137L6.10269 18.001L5.23724 17.5ZM16.0693 7.32219C16.5233 7.00783 16.6366 6.38487 16.3222 5.93079C16.0079 5.47671 15.3849 5.36344 14.9308 5.67781L16.0693 7.32219ZM1.57152 22.6286C1.36641 23.1414 1.61583 23.7234 2.12861 23.9285C2.64139 24.1336 3.22336 23.8842 3.42848 23.3714L1.57152 22.6286ZM5.23724 17.5C6.10269 18.001 6.10259 18.0012 6.10251 18.0013C6.10251 18.0013 6.10244 18.0014 6.10242 18.0015C6.10239 18.0015 6.10241 18.0015 6.1025 18.0013C6.10266 18.0011 6.10305 18.0004 6.10367 17.9993C6.1049 17.9972 6.10704 17.9936 6.11009 17.9884C6.11618 17.978 6.12589 17.9616 6.13918 17.9394C6.16576 17.895 6.20667 17.8274 6.26165 17.7387C6.37162 17.5612 6.53778 17.2994 6.75812 16.9698C7.19899 16.3102 7.85554 15.3808 8.71146 14.3129C10.4273 12.172 12.9243 9.49947 16.0693 7.32219L14.9308 5.67781C11.5758 8.00053 8.94143 10.828 7.15084 13.0621C6.25355 14.1817 5.56315 15.1585 5.09537 15.8583C4.86138 16.2084 4.6828 16.4896 4.5616 16.6852C4.50099 16.783 4.45471 16.8594 4.423 16.9124C4.40714 16.9389 4.39493 16.9595 4.38638 16.9741C4.38211 16.9813 4.37876 16.987 4.37633 16.9912C4.37511 16.9933 4.37412 16.995 4.37337 16.9963C4.37299 16.9969 4.37267 16.9975 4.37241 16.9979C4.37228 16.9982 4.37213 16.9984 4.37206 16.9985C4.37192 16.9988 4.3718 16.999 5.23724 17.5ZM4.38682 16.9739C3.11559 19.0288 2.59037 20.0815 1.57152 22.6286L3.42848 23.3714C4.40963 20.9185 4.88441 19.9712 6.08767 18.0261L4.38682 16.9739Z" fill="#219EBC"/>
<path d="M4.50005 11L3.57158 10.6286L4.50005 11ZM20.7821 2.04725L20.9962 3.02405L20.7821 2.04725ZM20.8909 2.19316L20.0181 1.70512L20.8909 2.19316ZM20.5679 1.07044C17.0327 1.84545 13.2881 3.0814 10.1978 4.66337C7.1636 6.21664 4.53673 8.21572 3.57158 10.6286L5.42853 11.3714C6.10707 9.67505 8.14926 7.95889 11.1092 6.44365C14.013 4.95711 17.5876 3.7713 20.9962 3.02405L20.5679 1.07044ZM3.57158 10.6286C3.01102 12.03 2.81693 13.5703 2.96689 14.9227C3.11236 16.2346 3.61102 17.5783 4.66172 18.3178L5.81277 16.6822C5.44253 16.4217 5.07259 15.7654 4.9547 14.7023C4.84131 13.6797 4.98909 12.47 5.42853 11.3714L3.57158 10.6286ZM4.66172 18.3178C5.54502 18.9394 6.83408 19.4294 8.43361 19.2162C10.0244 19.0042 11.801 18.1133 13.7072 16.2071L12.2929 14.7929C10.5991 16.4867 9.20478 17.0958 8.16939 17.2338C7.14275 17.3706 6.35041 17.0606 5.81277 16.6822L4.66172 18.3178ZM13.7072 16.2071C15.5861 14.3282 17.1212 11.7739 18.4144 9.31296C19.0644 8.07607 19.6646 6.84002 20.2187 5.7073C20.7771 4.56598 21.2848 3.53775 21.7637 2.6812L20.0181 1.70512C19.5079 2.61754 18.9765 3.69531 18.4222 4.8284C17.8636 5.97009 17.2775 7.17687 16.6439 8.3826C15.37 10.8069 13.9487 13.1371 12.2929 14.7929L13.7072 16.2071ZM20.9962 3.02405C20.2477 3.18814 19.6347 2.39076 20.0181 1.70512L21.7637 2.6812C22.2315 1.84464 21.4854 0.869325 20.5679 1.07044L20.9962 3.02405Z" fill="#023047"/>
</svg>
