<svg width="28" height="28" viewBox="0 0 28 28" fill="none" xmlns="http://www.w3.org/2000/svg">
<g filter="url(#filter0_d_101_309)">
<path d="M12.2929 6.70711L12.5858 7H13H22C22.5523 7 23 7.44772 23 8V18C23 18.5523 22.5523 19 22 19H6C5.44772 19 5 18.5523 5 18V6C5 5.44772 5.44772 5 6 5H10.5858L12.2929 6.70711Z" stroke="#219EBC" stroke-width="2"/>
<mask id="mask0_101_309" style="mask-type:alpha" maskUnits="userSpaceOnUse" x="3" y="8" width="22" height="14">
<rect x="3" y="22" width="14" height="22" transform="rotate(-90 3 22)" fill="black"/>
</mask>
<g mask="url(#mask0_101_309)">
<path d="M12.2929 6.70711L12.5858 7H13H22C22.5523 7 23 7.44772 23 8V18C23 18.5523 22.5523 19 22 19H6C5.44772 19 5 18.5523 5 18V6C5 5.44772 5.44772 5 6 5H10.5858L12.2929 6.70711Z" stroke="#023047" stroke-width="2"/>
</g>
</g>
<defs>
<filter id="filter0_d_101_309" x="-2" y="0" width="32" height="32" filterUnits="userSpaceOnUse" color-interpolation-filters="sRGB">
<feFlood flood-opacity="0" result="BackgroundImageFix"/>
<feColorMatrix in="SourceAlpha" type="matrix" values="0 0 0 0 0 0 0 0 0 0 0 0 0 0 0 0 0 0 127 0" result="hardAlpha"/>
<feOffset dy="4"/>
<feGaussianBlur stdDeviation="2"/>
<feComposite in2="hardAlpha" operator="out"/>
<feColorMatrix type="matrix" values="0 0 0 0 0 0 0 0 0 0 0 0 0 0 0 0 0 0 0.25 0"/>
<feBlend mode="normal" in2="BackgroundImageFix" result="effect1_dropShadow_101_309"/>
<feBlend mode="normal" in="SourceGraphic" in2="effect1_dropShadow_101_309" result="shape"/>
</filter>
</defs>
</svg>
