<svg width="69" height="17" viewBox="0 0 69 17" fill="none" xmlns="http://www.w3.org/2000/svg">
<g filter="url(#filter0_d_7_156)">
<path d="M13.7109 14H10.7309C9.21094 12.08 8.03094 10.5867 7.19094 9.52C6.36427 8.45333 5.79094 7.71333 5.47094 7.3C5.16427 6.88667 5.01094 6.68 5.01094 6.68V14H1.51094V0.7H4.57094C6.10427 2.63333 7.28427 4.13333 8.11094 5.2C8.9376 6.25333 9.4976 6.98667 9.79094 7.4C10.0843 7.8 10.2309 8 10.2309 8V0.7H13.7109V14ZM27.3611 8.98C27.3611 10.4867 26.8611 11.7333 25.8611 12.72C24.8744 13.7067 23.5278 14.2 21.8211 14.2C20.1011 14.2 18.7478 13.74 17.7611 12.82C16.7744 11.8867 16.2811 10.6267 16.2811 9.04C16.2811 8.02667 16.5011 7.12667 16.9411 6.34C17.3811 5.54 18.0144 4.90667 18.8411 4.44C19.6678 3.97333 20.6611 3.74 21.8211 3.74C23.6078 3.74 24.9744 4.22667 25.9211 5.2C26.8811 6.17333 27.3611 7.43333 27.3611 8.98ZM23.9011 9C23.9011 8.28 23.7411 7.67333 23.4211 7.18C23.1144 6.67333 22.5878 6.42 21.8411 6.42C21.1078 6.42 20.5744 6.67333 20.2411 7.18C19.9211 7.67333 19.7611 8.28 19.7611 9C19.7611 9.77333 19.9344 10.3933 20.2811 10.86C20.6278 11.3133 21.1544 11.54 21.8611 11.54C22.5678 11.54 23.0811 11.3 23.4011 10.82C23.7344 10.3267 23.9011 9.72 23.9011 9ZM35.7834 4V6.5H33.2834V14H30.0634V1.48L33.2834 0.42V4H35.7834ZM46.7289 13.24C46.0622 13.5467 45.3756 13.7867 44.6689 13.96C43.9622 14.12 43.1889 14.2 42.3489 14.2C40.6156 14.2 39.2556 13.7533 38.2689 12.86C37.2956 11.9533 36.8089 10.6733 36.8089 9.02C36.8089 8.1 37.0089 7.24667 37.4089 6.46C37.8089 5.66 38.4156 5.01333 39.2289 4.52C40.0422 4.02667 41.0756 3.78 42.3289 3.78C43.9156 3.78 45.1222 4.20667 45.9489 5.06C46.7889 5.9 47.2089 7.18 47.2089 8.9C47.2089 9.03333 47.2022 9.18667 47.1889 9.36C47.1889 9.52 47.1822 9.66 47.1689 9.78H40.2889C40.3156 10.3267 40.5556 10.76 41.0089 11.08C41.4756 11.4 42.0756 11.56 42.8089 11.56C43.7156 11.56 44.4556 11.48 45.0289 11.32C45.6022 11.1467 46.1689 10.9133 46.7289 10.62V13.24ZM40.3489 7.92H44.0289C44.0289 7.42667 43.8756 7.02667 43.5689 6.72C43.2622 6.41333 42.8356 6.26 42.2889 6.26C41.7556 6.26 41.3089 6.4 40.9489 6.68C40.6022 6.96 40.4022 7.37333 40.3489 7.92ZM57.1622 14H53.6022V0.7H57.1622V14ZM67.4436 4V6.5H64.9436V14H61.7236V1.48L64.9436 0.42V4H67.4436Z" fill="#023047"/>
</g>
<defs>
<filter id="filter0_d_7_156" x="0.510925" y="0.42" width="67.9327" height="15.78" filterUnits="userSpaceOnUse" color-interpolation-filters="sRGB">
<feFlood flood-opacity="0" result="BackgroundImageFix"/>
<feColorMatrix in="SourceAlpha" type="matrix" values="0 0 0 0 0 0 0 0 0 0 0 0 0 0 0 0 0 0 127 0" result="hardAlpha"/>
<feOffset dy="1"/>
<feGaussianBlur stdDeviation="0.5"/>
<feComposite in2="hardAlpha" operator="out"/>
<feColorMatrix type="matrix" values="0 0 0 0 0 0 0 0 0 0 0 0 0 0 0 0 0 0 0.25 0"/>
<feBlend mode="normal" in2="BackgroundImageFix" result="effect1_dropShadow_7_156"/>
<feBlend mode="normal" in="SourceGraphic" in2="effect1_dropShadow_7_156" result="shape"/>
</filter>
</defs>
</svg>
