<svg width="67" height="15" viewBox="0 0 67 15" fill="none" xmlns="http://www.w3.org/2000/svg">
<path d="M12.711 14H9.73099C8.21099 12.08 7.03099 10.5866 6.19099 9.51998C5.36432 8.45332 4.79099 7.71332 4.47099 7.29998C4.16432 6.88665 4.01099 6.67998 4.01099 6.67998V14H0.510986V0.699983H3.57099C5.10432 2.63332 6.28432 4.13332 7.11099 5.19998C7.93765 6.25332 8.49765 6.98665 8.79099 7.39998C9.08432 7.79998 9.23099 7.99998 9.23099 7.99998V0.699983H12.711V14Z" fill="#033C59"/>
<path d="M26.3611 8.97998C26.3611 10.4867 25.8611 11.7333 24.8611 12.72C23.8745 13.7066 22.5278 14.2 20.8211 14.2C19.1011 14.2 17.7478 13.74 16.7611 12.82C15.7745 11.8867 15.2811 10.6266 15.2811 9.03998C15.2811 8.02665 15.5011 7.12665 15.9411 6.33998C16.3811 5.53998 17.0145 4.90665 17.8411 4.43998C18.6678 3.97332 19.6611 3.73998 20.8211 3.73998C22.6078 3.73998 23.9745 4.22665 24.9211 5.19998C25.8811 6.17332 26.3611 7.43332 26.3611 8.97998ZM22.9011 8.99998C22.9011 8.27998 22.7411 7.67332 22.4211 7.17998C22.1145 6.67332 21.5878 6.41998 20.8411 6.41998C20.1078 6.41998 19.5745 6.67332 19.2411 7.17998C18.9211 7.67332 18.7611 8.27998 18.7611 8.99998C18.7611 9.77332 18.9345 10.3933 19.2811 10.86C19.6278 11.3133 20.1545 11.54 20.8611 11.54C21.5678 11.54 22.0811 11.3 22.4011 10.82C22.7345 10.3267 22.9011 9.71998 22.9011 8.99998Z" fill="#033C59"/>
<path d="M34.7835 3.99998V6.49998H32.2835V14H29.0635V1.47998L32.2835 0.419983V3.99998H34.7835Z" fill="#033C59"/>
<path d="M45.729 13.24C45.0623 13.5467 44.3756 13.7866 43.669 13.96C42.9623 14.12 42.189 14.2 41.349 14.2C39.6156 14.2 38.2556 13.7533 37.269 12.86C36.2956 11.9533 35.809 10.6733 35.809 9.01998C35.809 8.09998 36.009 7.24665 36.409 6.45998C36.809 5.65998 37.4156 5.01332 38.229 4.51998C39.0423 4.02665 40.0756 3.77998 41.329 3.77998C42.9156 3.77998 44.1223 4.20665 44.949 5.05998C45.789 5.89998 46.209 7.17998 46.209 8.89998C46.209 9.03332 46.2023 9.18665 46.189 9.35998C46.189 9.51998 46.1823 9.65998 46.169 9.77998H39.289C39.3156 10.3267 39.5556 10.76 40.009 11.08C40.4756 11.4 41.0756 11.56 41.809 11.56C42.7156 11.56 43.4556 11.48 44.029 11.32C44.6023 11.1467 45.169 10.9133 45.729 10.62V13.24ZM39.349 7.91998H43.029C43.029 7.42665 42.8756 7.02665 42.569 6.71998C42.2623 6.41332 41.8356 6.25998 41.289 6.25998C40.7556 6.25998 40.309 6.39998 39.949 6.67998C39.6023 6.95998 39.4023 7.37332 39.349 7.91998Z" fill="#033C59"/>
<path d="M56.1622 14H52.6022V0.699983H56.1622V14Z" fill="#19A1E5"/>
<path d="M66.4436 3.99998V6.49998H63.9436V14H60.7236V1.47998L63.9436 0.419983V3.99998H66.4436Z" fill="#19A1E5"/>
</svg>
