<svg id="Layer_1" data-name="Layer 1" xmlns="http://www.w3.org/2000/svg" width="23.8" height="23.8" viewBox="0 0 23.8 23.8">
  <g>
    <path d="M6.07,15.07a2.64,2.64,0,0,1-1.34-.33,2.24,2.24,0,0,1-.88-.9,2.64,2.64,0,0,1-.32-1.3,2.4,2.4,0,0,1,.75-1.84A2.65,2.65,0,0,1,6.16,10,2.57,2.57,0,0,1,8,10.68a2.37,2.37,0,0,1,.71,1.79A2.54,2.54,0,0,1,8,14.35,2.58,2.58,0,0,1,6.07,15.07Zm.06-1.13A1.17,1.17,0,0,0,7,13.58a1.45,1.45,0,0,0,.35-1,1.46,1.46,0,0,0-.35-1,1.18,1.18,0,0,0-.87-.35,1.26,1.26,0,0,0-.93.36,1.42,1.42,0,0,0-.35,1,1.43,1.43,0,0,0,.35,1A1.24,1.24,0,0,0,6.13,13.94Z" transform="translate(-0.1 -0.1)" fill="#219ebc"/>
    <path d="M13.9,14.72a4.21,4.21,0,0,1-.76.25,4.8,4.8,0,0,1-1,.1,2.57,2.57,0,0,1-1.87-.68,2.48,2.48,0,0,1-.69-1.86,2.61,2.61,0,0,1,.35-1.37,2.42,2.42,0,0,1,1-.86,3,3,0,0,1,1.35-.3,4.84,4.84,0,0,1,1,.1,5.28,5.28,0,0,1,.66.19v1.16a4.34,4.34,0,0,0-.61-.2,3.62,3.62,0,0,0-.89-.11,1.9,1.9,0,0,0-.71.13,1.16,1.16,0,0,0-.55.44,1.46,1.46,0,0,0-.21.85,1.44,1.44,0,0,0,.2.79,1.22,1.22,0,0,0,.53.45,1.89,1.89,0,0,0,.72.14,3.46,3.46,0,0,0,.92-.13,4.53,4.53,0,0,0,.65-.21Z" transform="translate(-0.1 -0.1)" fill="#219ebc"/>
    <path d="M19.54,15H18.11l-.62-1.15a1.25,1.25,0,0,0-.32-.44.79.79,0,0,0-.54-.15h-.29V15H15V10.09l.86,0h1a5.1,5.1,0,0,1,.8.06,1.82,1.82,0,0,1,.61.2A1.36,1.36,0,0,1,19,11.54a1.19,1.19,0,0,1-.17.65,1.45,1.45,0,0,1-.44.45,1.19,1.19,0,0,1-.39.17.89.89,0,0,1,.26.12,1.22,1.22,0,0,1,.16.14,1.83,1.83,0,0,1,.19.24l.16.27Zm-3.2-2.75H17a1,1,0,0,0,.5-.12.58.58,0,0,0,.22-.45.5.5,0,0,0-.25-.44.84.84,0,0,0-.24-.07l-.27,0-.59,0Z" transform="translate(-0.1 -0.1)" fill="#219ebc"/>
  </g>
  <g>
    <polyline points="22.9 17.4 22.9 22.9 17.4 22.9" fill="none" stroke="#023047" stroke-miterlimit="10" stroke-width="1.8"/>
    <polyline points="6.4 22.9 0.9 22.9 0.9 17.4" fill="none" stroke="#023047" stroke-miterlimit="10" stroke-width="1.8"/>
    <polyline points="0.9 6.4 0.9 0.9 6.4 0.9" fill="none" stroke="#023047" stroke-miterlimit="10" stroke-width="1.8"/>
    <polyline points="17.4 0.9 22.9 0.9 22.9 6.4" fill="none" stroke="#023047" stroke-miterlimit="10" stroke-width="1.8"/>
  </g>
</svg>
